<svg width="345" height="357" viewBox="0 0 345 357" fill="none" xmlns="http://www.w3.org/2000/svg">
<path fill-rule="evenodd" clip-rule="evenodd" d="M105.592 35.4368C68.2954 15.3545 27.7301 6.31488 2.99674 6.02706L0 5.99219L0.0697608 0L3.0665 0.0348728C28.8458 0.334866 70.3558 9.65751 108.434 30.1607C133.083 43.4324 156.487 61.4981 173.228 85.0173C187.243 65.7755 209.163 55.1668 232.759 54.8213C271.175 54.2587 313.271 80.823 332.898 139.599C344.627 174.725 347.825 215.355 342.515 253.258C337.208 291.134 323.36 326.574 300.704 351.091L298.67 353.292L294.267 349.225L296.301 347.024C317.882 323.672 331.383 289.512 336.579 252.427C341.771 215.369 338.627 175.679 327.212 141.497C308.26 84.7408 268.201 60.2955 232.847 60.8132C210.477 61.1408 189.686 71.4311 176.826 90.3175C184.241 101.788 190.087 114.483 193.793 128.469C198.85 147.549 199.266 162.597 196.891 173.198C194.573 183.547 189.241 190.725 181.962 191.526C174.641 192.331 167.979 186.413 163.645 176.64C159.209 166.635 156.608 151.532 157.712 131.194C158.576 115.287 162.887 101.598 169.664 90.3828C153.537 66.9066 130.39 48.7888 105.592 35.4368ZM173.334 96.0179C167.892 105.93 164.441 117.815 163.697 131.519C162.624 151.282 165.198 165.356 169.125 174.212C173.155 183.3 178.047 185.927 181.307 185.569C184.609 185.206 188.886 181.513 191.042 171.889C193.142 162.517 192.899 148.492 187.999 130.004C184.73 117.669 179.704 106.355 173.334 96.0179Z" fill="#21201F"/>
<path fill-rule="evenodd" clip-rule="evenodd" d="M297.064 350.161L325.787 345.715L326.704 351.637L292.058 357L286.694 322.362L292.617 321.445L297.064 350.161Z" fill="#21201F"/>
</svg>
