<svg width="177" height="51" viewBox="0 0 177 51" fill="none" xmlns="http://www.w3.org/2000/svg">
<path d="M139.196 0.892578H158.659C163.306 0.893061 167.762 2.73398 171.048 6.01045C174.334 9.28692 176.18 13.7306 176.181 18.3643V33.4227C176.181 35.717 175.728 37.9889 174.847 40.1086C173.967 42.2282 172.676 44.1542 171.049 45.7764C169.422 47.3987 167.49 48.6854 165.364 49.5633C163.238 50.4411 160.96 50.8928 158.659 50.8926H139.397C137.096 50.8928 134.818 50.4411 132.692 49.5633C130.566 48.6854 128.634 47.3987 127.007 45.7764C125.38 44.1542 124.089 42.2282 123.209 40.1086C122.328 37.9889 121.875 35.717 121.875 33.4227V18.3643C121.875 8.71322 129.517 0.892578 139.196 0.892578Z" fill="#21201F"/>
<path d="M143.959 29.1624V28.3137H138.833V24.5364H148.827V29.0295C148.827 36.1016 145.44 40.2104 139.034 40.2104C132.428 40.2104 128.591 35.0197 128.591 25.8677C128.591 16.9434 132.778 11.4795 140.46 11.4795C143.362 11.4795 145.865 12.2463 147.233 13.2443V17.1328C145.268 15.9186 143.005 15.2676 140.694 15.2514C135.656 15.2514 133.52 18.6627 133.52 25.8677C133.52 32.856 135.289 36.4312 139.125 36.4312C142.79 36.4494 143.959 33.621 143.959 29.1624Z" fill="white"/>
<path d="M169.552 29.6943C169.552 36.484 165.881 40.2268 160.604 40.2268C155.327 40.2268 151.657 36.484 151.657 29.7453C151.657 22.9555 155.327 19.2127 160.604 19.2127C165.881 19.2127 169.552 22.9391 169.552 29.6943ZM164.596 29.6943C164.596 25.0354 163.261 22.9901 160.61 22.9901C157.959 22.9901 156.622 25.0354 156.622 29.7453C156.622 34.4041 157.957 36.4513 160.61 36.4513C163.263 36.4513 164.596 34.3877 164.596 29.6943Z" fill="white"/>
<path d="M13.9269 15.6695H11.7357C7.75507 15.6695 5.65884 17.682 5.65884 20.6598C5.65884 24.0383 7.10867 25.6028 10.096 27.6153L12.5483 29.2636L5.45799 39.8271H0.180908L6.53714 30.3764C2.86692 27.7647 0.814523 25.2367 0.814523 20.9275C0.814523 15.5365 4.56326 11.8921 11.6846 11.8921H18.773V39.8289H13.9104V15.6695H13.9269ZM38.8168 19.6126V39.8289H34.0291V31.3927H27.6217V39.8289H22.834V19.6126H27.6217V27.6153H34.0291V19.6126H38.8168ZM60.4528 44.4386H56.0157V39.8125H45.2552V44.4386H40.8181V36.0443H42.319C44.0044 32.6658 44.3386 26.2767 44.3386 21.3355V19.6053H58.3164V36.0443H60.4528V44.4386ZM53.5287 23.3899H48.458V23.9891C48.458 27.4824 48.0928 32.99 46.7562 36.0516H53.5287V23.3899ZM71.2115 40.2114C65.0908 40.2114 61.6196 36.8001 61.6196 29.7626C61.6196 23.6558 64.4061 19.1991 70.2455 19.1991C75.0333 19.1991 78.1356 21.86 78.1356 28.8829V31.4109H66.5753C66.7744 34.7894 68.1092 36.4359 71.6132 36.4359C73.9486 36.4359 76.4502 35.5544 77.9347 34.5399V38.4484C76.5342 39.4137 74.281 40.2114 71.2115 40.2114ZM66.5753 27.8812H73.2639V27.4842C73.2639 24.9562 72.5335 22.9929 70.1597 22.9929C67.8754 22.9728 66.7086 24.6703 66.5753 27.8812ZM86.1589 29.8956V39.8289H81.3548V19.6126H86.1589V28.9303L92.9406 19.6126H97.7795L91.0069 28.9303L98.6961 39.8125H93.2492L86.1589 29.8956ZM98.4204 29.7299C98.4204 23.5721 101.607 19.1973 107.733 19.1973C110.107 19.1973 111.887 19.5962 112.888 20.1608V24.2223C111.92 23.623 110.101 22.9728 108.25 22.9728C105.113 22.9728 103.378 25.2203 103.378 29.6133C103.378 33.7895 104.797 36.4504 108.217 36.4504C110.234 36.4504 111.686 35.935 112.888 35.0863V38.9802C111.719 39.8289 110.149 40.2278 107.932 40.2278C101.523 40.2114 98.4186 36.485 98.4186 29.7299H98.4204Z" fill="#21201F"/>
</svg>
