<svg width="362" height="112" viewBox="0 0 362 112" fill="none" xmlns="http://www.w3.org/2000/svg">
<mask id="mask0" style="mask-type:alpha" maskUnits="userSpaceOnUse" x="250" y="0" width="112" height="112">
<path fill-rule="evenodd" clip-rule="evenodd" d="M322.952 0C334.196 0 339.817 0 345.869 1.91333C352.477 4.31853 357.681 9.5228 360.087 16.1308C362 22.1825 362 27.8049 362 39.0479V72.9521C362 84.196 362 89.8165 360.087 95.8692C357.681 102.477 352.477 107.681 345.869 110.086C339.817 112 334.196 112 322.952 112H289.048C277.804 112 272.183 112 266.131 110.086C259.523 107.681 254.319 102.477 251.913 95.8692C250 89.8165 250 84.196 250 72.9521V39.0479C250 27.8049 250 22.1825 251.913 16.1308C254.319 9.5228 259.523 4.31853 266.131 1.91333C272.183 0 277.804 0 289.048 0H322.952Z" fill="#C4C4C4"/>
</mask>
<g mask="url(#mask0)">
<g clip-path="url(#clip0)">
<path d="M250 0H362V112H250V0Z" fill="#F1F0ED"/>
<line x1="242.298" y1="96.8333" x2="333.298" y2="96.8333" stroke="black" stroke-opacity="0.15" stroke-width="2.33333" stroke-linecap="round"/>
<path fill-rule="evenodd" clip-rule="evenodd" d="M274.732 73.7331C274.732 61.362 269.36 51.3331 262.732 51.3331H256.066V51.3332C249.881 51.3352 244.868 61.3633 244.868 73.7332C244.868 86.1044 249.882 96.1332 256.068 96.1332C256.08 96.1332 256.092 96.1332 256.104 96.1331H262.732C269.36 96.1331 274.732 86.1043 274.732 73.7331Z" fill="#42413E"/>
<ellipse rx="5.6" ry="11.2" transform="matrix(-1 0 0 1 254.2 73.7335)" fill="#EDECE8"/>
<path d="M302.5 74.6666H306V85.1666H269.833C264.034 85.1666 259.333 80.4656 259.333 74.6666V74.6666H289.667H302.5Z" fill="#5C5A57"/>
<path d="M317.667 51.3334H301.333L289.667 74.6667C289.667 80.4657 294.368 85.1667 300.167 85.1667H317.667V51.3334Z" fill="#21201F"/>
<path d="M313.547 -20.558C313.147 -24.727 309.443 -27.7822 305.274 -27.382C301.105 -26.9818 298.05 -23.2777 298.45 -19.1087L313.547 -20.558ZM319.991 46.5719L313.547 -20.558L298.45 -19.1087L304.894 48.0211L319.991 46.5719Z" fill="#FCB900"/>
<path d="M313.233 34.7648L308.916 -10.7725" stroke="#FAF9F7" stroke-width="5.83333" stroke-linecap="round"/>
<path fill-rule="evenodd" clip-rule="evenodd" d="M330.732 73.7331C330.732 61.362 325.36 51.3331 318.732 51.3331H312.066V51.3332C305.881 51.3352 300.868 61.3633 300.868 73.7332C300.868 86.1044 305.882 96.1332 312.068 96.1332C312.08 96.1332 312.092 96.1332 312.104 96.1331H318.732C325.36 96.1331 330.732 86.1043 330.732 73.7331Z" fill="#42413E"/>
<ellipse rx="5.6" ry="11.2" transform="matrix(-1 0 0 1 310.198 73.7335)" fill="#EDECE8"/>
<path d="M255.833 70C253.9 70 252.333 71.567 252.333 73.5C252.333 75.433 253.9 77 255.833 77V70ZM302.5 47.8334V44.3334H300.422L299.427 46.1574L302.5 47.8334ZM321.167 51.3334C323.1 51.3334 324.667 49.7664 324.667 47.8334C324.667 45.9004 323.1 44.3334 321.167 44.3334V51.3334ZM287.852 73.3805L286.746 70.0598L287.852 73.3805ZM289.561 71.5544L292.634 73.2304L289.561 71.5544ZM288.705 72.874L291.091 75.4348L288.705 72.874ZM255.833 77H286.284V70H255.833V77ZM292.634 73.2304L305.573 49.5094L299.427 46.1574L286.489 69.8784L292.634 73.2304ZM302.5 51.3334H321.167V44.3334H302.5V51.3334ZM286.284 77C286.847 77 287.932 77.0427 288.958 76.7013L286.746 70.0598C286.96 69.9886 287.1 69.9869 287.024 69.9915C286.982 69.9941 286.908 69.9969 286.777 69.9984C286.645 70 286.491 70 286.284 70V77ZM286.489 69.8784C286.389 70.0606 286.316 70.1956 286.251 70.3105C286.187 70.4248 286.149 70.4882 286.127 70.5241C286.086 70.5884 286.155 70.4668 286.32 70.3131L291.091 75.4348C291.882 74.6982 292.364 73.7247 292.634 73.2304L286.489 69.8784ZM288.958 76.7013C289.751 76.437 290.479 76.0051 291.091 75.4348L286.32 70.3131C286.442 70.199 286.588 70.1127 286.746 70.0598L288.958 76.7013Z" fill="#FCB900"/>
</g>
</g>
<mask id="mask1" style="mask-type:alpha" maskUnits="userSpaceOnUse" x="0" y="0" width="112" height="112">
<path fill-rule="evenodd" clip-rule="evenodd" d="M72.9521 0C84.196 0 89.8165 0 95.8692 1.91333C102.477 4.31853 107.681 9.5228 110.087 16.1308C112 22.1825 112 27.8049 112 39.0479V72.9521C112 84.196 112 89.8165 110.087 95.8692C107.681 102.477 102.477 107.681 95.8692 110.086C89.8165 112 84.196 112 72.9521 112H39.0479C27.804 112 22.1825 112 16.1308 110.086C9.5228 107.681 4.31853 102.477 1.91333 95.8692C0 89.8165 0 84.196 0 72.9521V39.0479C0 27.8049 0 22.1825 1.91333 16.1308C4.31853 9.5228 9.5228 4.31853 16.1308 1.91333C22.1825 0 27.804 0 39.0479 0H72.9521Z" fill="#C4C4C4"/>
</mask>
<g mask="url(#mask1)">
<rect x="0.000610352" y="56.0002" width="56.0009" height="56.0009" fill="url(#paint0_linear)"/>
<rect x="56.0017" y="56.0005" width="56.0009" height="56.0009" fill="url(#paint1_radial)"/>
<rect width="112.002" height="56.0009" fill="url(#paint2_linear)"/>
</g>
<path fill-rule="evenodd" clip-rule="evenodd" d="M216.159 58.6985L141 58.6982L141 52.6982L216.159 52.6985L216.159 58.6985Z" fill="#21201F"/>
<path fill-rule="evenodd" clip-rule="evenodd" d="M211.916 55.6982L193.46 37.2426L197.703 33L220.401 55.6982L197.703 78.3964L193.46 74.1538L211.916 55.6982Z" fill="#21201F"/>
<defs>
<linearGradient id="paint0_linear" x1="87.9139" y1="5.75512" x2="113.236" y2="113.553" gradientUnits="userSpaceOnUse">
<stop stop-color="#FEFEFE"/>
<stop offset="0.270489" stop-color="#F9F8F7"/>
<stop offset="1" stop-color="#EAE3CF"/>
</linearGradient>
<radialGradient id="paint1_radial" cx="0" cy="0" r="1" gradientUnits="userSpaceOnUse" gradientTransform="translate(77.1614 161.503) rotate(-87.0199) scale(131.58)">
<stop offset="0.403945" stop-color="#302F28"/>
<stop offset="0.566376" stop-color="#282724"/>
<stop offset="0.6887" stop-color="#272623"/>
<stop offset="0.890914" stop-color="#242321"/>
</radialGradient>
<linearGradient id="paint2_linear" x1="0" y1="0" x2="82.3003" y2="180.193" gradientUnits="userSpaceOnUse">
<stop stop-color="#FCE000"/>
<stop offset="0.47222" stop-color="#FAAA00"/>
<stop offset="1" stop-color="#FCE000"/>
</linearGradient>
<clipPath id="clip0">
<path d="M250 0H362V112H250V0Z" fill="white"/>
</clipPath>
</defs>
</svg>
