<svg width="112" height="112" viewBox="0 0 112 112" fill="none" xmlns="http://www.w3.org/2000/svg">
<rect width="112" height="112" rx="28" fill="#FA9214"/>
<rect x="7" y="7" width="98" height="98" rx="24.5" fill="#FA9214"/>
<circle cx="31.495" cy="80.502" r="9.46591" stroke="white" stroke-width="5.56818"/>
<circle cx="80.495" cy="80.502" r="9.46591" stroke="white" stroke-width="5.56818"/>
<path d="M58.4418 25.3728L59.8285 25.3728C64.1228 25.3728 66.2699 25.3728 68.0108 26.1544C69.5453 26.8434 70.8534 27.9527 71.7838 29.3541C72.8393 30.9438 73.1901 33.0621 73.8916 37.2987L79.2668 69.7612" stroke="white" stroke-width="5.56818"/>
<line x1="41.2927" y1="80.17" x2="70.6927" y2="80.17" stroke="white" stroke-width="5.56818"/>
<path d="M21.6965 21.7026H35.2391C40.2548 21.7026 44.1516 22.6503 46.9296 24.5456C49.7076 26.4409 51.0965 29.4479 51.0965 33.5665C51.0965 35.8263 50.7107 37.7763 49.939 39.4164C49.1674 41.0566 48.0678 42.4052 46.6402 43.4622C45.2513 44.5192 43.5536 45.3028 41.5473 45.8131C39.5796 46.2869 37.3804 46.5238 34.9497 46.5238H28.6993V60.9026H21.6965V21.7026ZM28.6993 27.4432V40.8379H34.9497C37.7662 40.8379 39.9847 40.3094 41.6052 39.2524C43.2257 38.1954 44.0359 36.373 44.0359 33.7852C44.0359 31.5619 43.2835 29.9581 41.7788 28.974C40.3127 27.9535 38.1328 27.4432 35.2391 27.4432H28.6993Z" fill="white"/>
</svg>
