<svg width="362" height="112" viewBox="0 0 362 112" fill="none" xmlns="http://www.w3.org/2000/svg">
<path fill-rule="evenodd" clip-rule="evenodd" d="M216.159 58.6985L141 58.6982L141 52.6982L216.159 52.6985L216.159 58.6985Z" fill="#21201F"/>
<path fill-rule="evenodd" clip-rule="evenodd" d="M211.916 55.6982L193.46 37.2426L197.703 33L220.401 55.6982L197.703 78.3964L193.46 74.1538L211.916 55.6982Z" fill="#21201F"/>
<path fill-rule="evenodd" clip-rule="evenodd" d="M286.197 80.5642C289.493 80.5642 292.165 77.8837 292.165 74.5771C292.165 71.2705 289.493 68.5899 286.197 68.5899C282.901 68.5899 280.23 71.2705 280.23 74.5771C280.23 77.8837 282.901 80.5642 286.197 80.5642ZM286.197 85.7059C292.324 85.7059 297.29 80.7234 297.29 74.5771C297.29 68.4308 292.324 63.4482 286.197 63.4482C280.071 63.4482 275.104 68.4308 275.104 74.5771C275.104 80.7234 280.071 85.7059 286.197 85.7059Z" fill="#21201F"/>
<path fill-rule="evenodd" clip-rule="evenodd" d="M327.284 80.564C330.58 80.564 333.252 77.8835 333.252 74.5768C333.252 71.2702 330.58 68.5897 327.284 68.5897C323.988 68.5897 321.316 71.2702 321.316 74.5768C321.316 77.8835 323.988 80.564 327.284 80.564ZM327.284 85.7057C333.411 85.7057 338.377 80.7231 338.377 74.5768C338.377 68.4306 333.411 63.448 327.284 63.448C321.158 63.448 316.191 68.4306 316.191 74.5768C316.191 80.7231 321.158 85.7057 327.284 85.7057Z" fill="#21201F"/>
<path fill-rule="evenodd" clip-rule="evenodd" d="M303.078 22.9961H314.283C318.315 22.9961 321.763 25.9036 322.456 29.888L328.931 67.0927L323.883 67.977L317.408 30.7723C317.143 29.2493 315.825 28.1378 314.283 28.1378H303.078V22.9961ZM292.909 72.0495H320.011V77.1912H292.909V72.0495Z" fill="#21201F"/>
<path fill-rule="evenodd" clip-rule="evenodd" d="M250 26.8402C250 12.0169 261.978 0.000244141 276.753 0.000244141H289.413V5.14193H276.753C264.808 5.14193 255.125 14.8566 255.125 26.8402V39.5408H250V26.8402Z" fill="#21201F"/>
<path fill-rule="evenodd" clip-rule="evenodd" d="M361.667 26.84C361.667 12.0167 349.689 0 334.914 0H322.254V5.14169H334.914C346.859 5.14169 356.542 14.8563 356.542 26.84V39.5406H361.667V26.84Z" fill="#21201F"/>
<path fill-rule="evenodd" clip-rule="evenodd" d="M250.001 85.16C250.001 99.9833 261.979 112 276.754 112L289.413 112L289.413 106.858L276.754 106.858C264.809 106.858 255.126 97.1437 255.126 85.16L255.126 72.4594L250.001 72.4594L250.001 85.16Z" fill="#21201F"/>
<path fill-rule="evenodd" clip-rule="evenodd" d="M362 85.16C362 99.9833 350.022 112 335.247 112L322.587 112L322.587 106.858L335.247 106.858C347.192 106.858 356.875 97.1437 356.875 85.16L356.875 72.4594L362 72.4594L362 85.16Z" fill="#21201F"/>
<path d="M0.592773 56.1284C0.592773 25.5033 25.4194 0.676758 56.0445 0.676758C86.6696 0.676758 111.496 25.5033 111.496 56.1284C111.496 86.7534 86.6696 111.581 56.0445 111.581C25.4194 111.581 0.592773 86.7534 0.592773 56.1284Z" fill="white"/>
<path fill-rule="evenodd" clip-rule="evenodd" d="M65.287 33.6842C65.287 36.5888 62.9105 38.9654 60.0058 38.9654C57.1012 38.9654 54.7247 36.5888 54.7247 33.6842C54.7247 30.7796 57.1012 28.4031 60.0058 28.4031C62.9105 28.4031 65.287 30.7796 65.287 33.6842ZM43.4759 82.0326L50.2357 47.9432L45.4827 49.7916V56.1289C45.4827 57.5813 44.2945 58.7695 42.8422 58.7695C41.3899 58.7695 40.2017 57.5813 40.2017 56.1289V49.8708C40.2017 47.7319 41.4691 45.8308 43.4231 44.9858L53.5364 40.7081C56.0978 39.6255 59.0552 40.576 60.5339 42.9262L63.1745 47.151C64.9437 50.2669 68.2707 52.6434 72.2844 53.3035C73.5783 53.5148 74.5289 54.5974 74.5289 55.8913C74.5289 57.502 73.103 58.7695 71.5187 58.5318C66.9241 57.7925 62.8312 55.4424 60.0058 52.1681L58.4215 60.0898L62.3295 63.813C63.3857 64.8164 63.9666 66.1895 63.9666 67.6418V82.5347C63.9666 83.9869 62.7784 85.1754 61.3261 85.1754C59.8738 85.1754 58.6856 83.9869 58.6856 82.5347V69.3317L53.1404 64.0506L48.8626 83.1157C48.5722 84.3305 47.516 85.1754 46.2749 85.1754H46.0637C44.4002 85.1754 43.1327 83.6434 43.4759 82.0326Z" fill="#21201F"/>
</svg>
