<svg width="83" height="83" viewBox="0 0 83 83" fill="none" xmlns="http://www.w3.org/2000/svg">
<g clip-path="url(#clip0)">
<path d="M27.6002 80.7941C0.525984 71.5022 -7.77877 29.1203 13.82 10.2984C35.4898 -8.57613 76.2808 5.61933 81.7544 33.6086C87.2515 61.7082 54.6973 90.0926 27.6002 80.7941Z" fill="#FFDE40"/>
<path fill-rule="evenodd" clip-rule="evenodd" d="M59.5085 62.4316V73.2921H64.1085V64.2133C62.4679 63.9151 60.9079 63.3347 59.5085 62.4316ZM68.8493 64.2591V73.2921H73.4493V62.4807C72.0424 63.3729 70.4642 63.9734 68.8493 64.2591ZM45.2133 73.2921V58.3188H40.6132V73.2921H45.2133ZM54.7648 73.2921V58.3188H50.1647V73.2921H54.7648ZM82.9999 73.2921V58.3188H78.3998V73.2921H82.9999ZM35.8706 73.2921V58.3188H31.2705V73.2921H35.8706Z" fill="#21201F"/>
<path d="M54.8729 39.6595L49.3979 45.6105C46.7795 48.2289 43.2089 49.6572 39.4003 49.6572H26.3081C25.3559 45.8485 22.2614 43.4681 17.9767 43.4681C12.9778 43.4681 9.40723 47.0387 9.40723 52.0376C9.40723 57.0364 12.9778 60.607 17.9767 60.607C22.2614 60.607 25.3559 58.2266 26.3081 54.418H39.4003C44.3991 54.418 49.1599 52.5136 52.7305 48.943L58.2054 42.754L54.8729 39.6595ZM17.9767 56.0842C15.5963 56.0842 13.93 54.656 13.93 52.0376C13.93 49.6572 15.3582 47.9909 17.9767 47.9909C20.3571 47.9909 22.0233 49.4191 22.0233 52.0376C21.7853 54.418 20.3571 56.0842 17.9767 56.0842Z" fill="#21201F"/>
<path d="M67.2389 43.4676C65.0965 28.233 62.3205 20.4714 58.9879 10.7118H63.9867V6.18904H57.3216C56.1314 2.85648 55.1793 0.952162 55.1793 0.714123L54.9412 0L50.4185 1.66628L50.6565 2.3804C50.6565 2.61844 59.1455 19.9016 62.4781 44.4197C59.6216 45.848 57.9553 48.4664 57.9553 52.037C57.9553 57.0359 61.5259 60.6065 66.5248 60.6065C71.5236 60.6065 75.0942 57.0359 75.0942 52.037C75.3322 47.0382 71.9997 43.7056 67.2389 43.4676ZM66.7628 56.0837C64.3824 56.0837 62.7161 54.6555 62.7161 52.037C62.7161 49.6566 64.1444 47.9903 66.7628 47.9903C69.1432 47.9903 70.8095 49.4186 70.8095 52.037C70.8095 54.4174 69.1432 56.0837 66.7628 56.0837Z" fill="#21201F"/>
</g>
<defs>
<clipPath id="clip0">
<rect width="83" height="83" fill="white"/>
</clipPath>
</defs>
</svg>
