<svg width="83" height="83" viewBox="0 0 83 83" fill="none" xmlns="http://www.w3.org/2000/svg">
<g clip-path="url(#clip0)">
<path d="M53.0732 81.89C24.6472 89.345 -6.5541 57.8419 1.20339 29.4705C8.9916 1.0138 51.9308 -10.0506 72.527 10.7604C93.206 31.6523 81.5226 74.4277 53.0732 81.89Z" fill="#FFDE40"/>
<path d="M66.1508 12.6223C65.0717 19.404 57.5335 17.397 54.9071 12.6222C52.2808 7.84748 54.2983 3.48749 57.867 2.67008C62.8415 1.53069 67.2299 5.84065 66.1508 12.6223Z" stroke="#21201F" stroke-width="4.60006" stroke-linecap="square" stroke-linejoin="bevel"/>
<path d="M29.3536 35.9798C33.1692 31.8833 43.1138 23.2805 52.3677 21.6416C46.2861 34.6244 41.0147 40.7185 49.7607 46.0813C58.0311 51.1524 61.2843 50.9203 60.3204 59.5956C59.5493 66.5358 58.4729 72.9297 58.0311 75.2592M47.376 53.0533C44.1509 58.7687 40.2155 59.238 33.5384 57.3091C27.2288 55.4863 23.8988 54.5632 23.0225 54.3296M79.8441 29.2914C79.8441 29.2914 77.0072 31.7356 74.6833 33.7497C71.4249 36.5736 68.4273 36.6776 65.9905 32.382C64.2773 29.3621 61.5933 24.3788 61.5933 24.3788C58.7278 30.9431 54.324 39.1074 50.9362 46.0813" stroke="#21201F" stroke-width="4.60006" stroke-linecap="square" stroke-linejoin="bevel"/>
</g>
<defs>
<clipPath id="clip0">
<rect width="83" height="83" fill="white"/>
</clipPath>
</defs>
</svg>
