<svg width="83" height="83" viewBox="0 0 83 83" fill="none" xmlns="http://www.w3.org/2000/svg">
<g clip-path="url(#clip0)">
<path d="M53.0732 81.89C24.6472 89.345 -6.5541 57.8419 1.20339 29.4705C8.9916 1.0138 51.9308 -10.0506 72.527 10.7604C93.2061 31.6523 81.5226 74.4277 53.0732 81.89Z" fill="#FFDE40"/>
<path fill-rule="evenodd" clip-rule="evenodd" d="M42.7943 21.4267C41.9067 23.8703 42.3738 27.5646 46.8329 31.4678L48.3526 32.798C49.2262 32.2678 50.1325 31.738 51.0687 31.2052C55.3062 28.794 56.6826 25.048 56.2323 22.1374C55.7928 19.2962 53.6011 16.9228 49.6704 16.9228C46.3995 16.9228 43.7316 18.8465 42.7943 21.4267ZM44.4351 35.3493C38.3611 39.6467 34.6358 44.2907 34.6358 50.9019C34.6358 54.5421 35.8777 58.3101 38.5115 61.192C41.1813 64.1132 45.1469 65.9747 50.2667 65.9747C55.3962 65.9747 59.3648 64.0838 62.0346 61.1562C64.6674 58.2692 65.9197 54.5051 65.9197 50.9019C65.9197 47.4218 64.4957 44.5676 62.8853 42.4563C61.2802 40.3519 59.4108 38.877 58.2846 38.0904L56.44 36.802L53.8632 40.4912L55.7078 41.7796C56.6173 42.4148 58.0846 43.5823 59.3073 45.1854C60.5248 46.7815 61.4197 48.6998 61.4197 50.9019C61.4197 53.5035 60.5091 56.1508 58.7096 58.124C56.9472 60.0566 54.2144 61.4747 50.2667 61.4747C46.3095 61.4747 43.5846 60.0725 41.8332 58.1562C40.0458 56.2005 39.1358 53.557 39.1358 50.9019C39.1358 44.9668 43.2782 40.8158 53.2942 35.1164C59.0078 31.8652 61.4402 26.3672 60.6794 21.4494C59.9078 16.4621 55.8684 12.4228 49.6704 12.4228C44.6513 12.4228 40.1963 15.3987 38.5647 19.8903C36.8836 24.5185 38.4018 30.0682 43.869 34.8538L44.4351 35.3493ZM28.041 14.6074C28.8474 14.9712 29.3657 15.7737 29.3657 16.6583V62.1549C29.3657 62.1551 29.3657 62.156 27.1157 62.156C24.8657 62.156 24.8657 62.1559 24.8657 62.1557V22.6201C23.7634 24.1267 22.7126 25.7535 21.7819 27.3009C20.8228 28.8956 20.024 30.3499 19.4654 31.405C19.1864 31.9319 18.9682 32.3576 18.8208 32.6495C18.7471 32.7954 18.6911 32.9077 18.6542 32.9824L18.6132 33.0656L18.6036 33.0851L18.6017 33.0891L17.6188 35.1133L13.5708 33.1477L14.5536 31.1237L16.5776 32.1065C14.5536 31.1237 14.5535 31.124 14.5536 31.1237L14.5592 31.1122L14.5724 31.0853L14.621 30.9866C14.6631 30.9014 14.7246 30.778 14.8041 30.6206C14.9631 30.3058 15.1946 29.8544 15.4884 29.2995C16.0753 28.1909 16.9146 26.6626 17.9257 24.9815C19.91 21.6824 22.6922 17.5614 25.6268 14.9714C26.2901 14.386 27.2347 14.2436 28.041 14.6074ZM24.8657 64.406V62.1557L27.1157 62.156H29.3657V64.406H24.8657Z" fill="#21201F"/>
<path fill-rule="evenodd" clip-rule="evenodd" d="M76.0244 21.2076L76.0213 46.2903L71.5213 46.2898L71.5244 21.2071L76.0244 21.2076Z" fill="#21201F"/>
<path fill-rule="evenodd" clip-rule="evenodd" d="M62.7061 31.4987L84.8413 31.4987L84.8413 35.9987L62.7061 35.9987L62.7061 31.4987Z" fill="#21201F"/>
</g>
<defs>
<clipPath id="clip0">
<rect width="83" height="83" fill="white"/>
</clipPath>
</defs>
</svg>
