<svg width="83" height="83" viewBox="0 0 83 83" fill="none" xmlns="http://www.w3.org/2000/svg">
<g clip-path="url(#clip0)">
<g clip-path="url(#clip1)">
<path d="M79.3868 56.3266C68.273 82.5334 26.6539 91.6221 10.7969 69.7231C-5.06009 47.8241 -5.49151 7.58468 24.3421 1.70229C54.1756 -4.18011 90.5007 30.1197 79.3868 56.3266Z" fill="#FFDE40"/>
<path fill-rule="evenodd" clip-rule="evenodd" d="M53.9327 57.6249L32.1267 59.0367L31.8359 54.5461L53.642 53.1343L53.9327 57.6249Z" fill="#21201F"/>
<path fill-rule="evenodd" clip-rule="evenodd" d="M41.8832 23.1727C38.5922 26.0168 35.572 29.1586 33.3069 31.8921L31.8713 33.6246L28.4062 30.7535L29.8418 29.0209C33.1052 25.0827 37.8197 20.3656 42.7911 16.6711L46.3832 18.4771V57.4145H41.8832V23.1727Z" fill="#21201F"/>
<path d="M41.4985 73.6639C20.8093 73.6639 6.91016 59.7648 6.91016 39.0756C6.91016 18.3864 20.8093 4.4873 41.4985 4.4873C62.1877 4.4873 76.0868 18.3875 76.0868 39.0756C76.0868 59.7637 62.1877 73.6639 41.4985 73.6639ZM41.4985 8.81084C23.3958 8.81084 11.2337 20.9751 11.2337 39.0756C11.2337 57.1761 23.3958 69.3404 41.4985 69.3404C59.6011 69.3404 71.7632 57.1739 71.7632 39.0756C71.7632 20.9773 59.6011 8.81084 41.4985 8.81084Z" fill="#21201F"/>
</g>
</g>
<defs>
<clipPath id="clip0">
<rect width="83" height="83" fill="white"/>
</clipPath>
<clipPath id="clip1">
<rect width="83" height="83" fill="white"/>
</clipPath>
</defs>
</svg>
