<svg width="83" height="83" viewBox="0 0 83 83" fill="none" xmlns="http://www.w3.org/2000/svg">
<g clip-path="url(#clip0)">
<path d="M53.0732 81.89C24.6472 89.345 -6.5541 57.8419 1.20339 29.4705C8.9916 1.0138 51.9308 -10.0506 72.527 10.7604C93.206 31.6523 81.5226 74.4277 53.0732 81.89Z" fill="#FFDE40"/>
<path fill-rule="evenodd" clip-rule="evenodd" d="M72.9335 0L83.0155 11.4125L79.5681 14.4581L69.486 3.04557L72.9335 0ZM16.165 0.988764L35.3288 22.9804C42.0774 17.4955 48.472 16.625 52.4084 17.6935L67.8298 6.14615L70.587 9.82834L54.1837 22.1109L51.8446 22.3597C50.1855 21.5972 44.9372 21.1528 38.3528 26.4507L52.1447 42.2776C54.7639 39.8326 56.2633 37.8086 57.11 35.9129C58.0353 33.841 58.2712 31.7213 58.0778 28.9983L58.7028 27.2532L72.8079 12.3715L76.1466 15.5359L62.7224 29.6993C62.8262 32.4987 62.4994 35.1261 61.3102 37.7888C60.1147 40.4655 58.1233 43.0077 55.1684 45.7476L73.0829 66.3054L69.6148 69.3276L12.6969 4.01088L16.165 0.988764ZM32.1124 31.777L30.3886 33.2997C26.8274 36.4458 23.2793 39.6161 20.3095 42.2756C19.5466 42.9589 18.8209 43.6092 18.1426 44.217C17.1126 45.1401 16.1918 45.9653 15.4156 46.6592L29.3549 62.438C30.3274 61.5828 31.5576 60.502 32.9179 59.3069C33.5394 58.7609 34.1881 58.191 34.8518 57.6078C38.0857 54.7663 41.6803 51.6062 44.2452 49.3402L45.969 47.8175L49.0145 51.2649L47.2908 52.7877C44.7205 55.0584 41.1214 58.2225 37.8881 61.0634C37.2219 61.6488 36.5713 62.2204 35.9486 62.7675C33.5462 64.8781 31.557 66.6258 30.6743 67.4055L27.4278 67.2046L10.4512 47.9877L10.6521 44.7411C11.5655 43.9343 13.1079 42.552 15.0576 40.8047C15.7388 40.1943 16.4696 39.5394 17.2407 38.8488C20.2127 36.1873 23.77 33.0088 27.343 29.8523L29.0668 28.3295L32.1124 31.777Z" fill="#21201F"/>
</g>
<defs>
<clipPath id="clip0">
<rect width="83" height="83" fill="white"/>
</clipPath>
</defs>
</svg>
