<svg width="83" height="83" viewBox="0 0 83 83" fill="none" xmlns="http://www.w3.org/2000/svg">
<g clip-path="url(#clip0)">
<path d="M53.0732 81.89C24.6472 89.345 -6.5541 57.8419 1.20339 29.4705C8.9916 1.0138 51.9308 -10.0506 72.527 10.7604C93.206 31.6523 81.5226 74.4277 53.0732 81.89Z" fill="#FFDE40"/>
<path fill-rule="evenodd" clip-rule="evenodd" d="M23.65 14.22C26.4325 12.5803 30.0353 11.6865 34.587 11.6865C42.4852 11.6865 47.3067 14.9121 49.8537 19.285C52.2936 23.474 52.451 28.3768 51.8478 31.6266L49.6149 33.4832H33.046V35.4484L30.7749 37.7194H19.2932L17.0571 35.8455C16.3253 31.7246 15.7698 25.7801 17.921 20.77C19.0257 18.1972 20.8431 15.8742 23.65 14.22ZM28.5038 33.1773V31.2121L30.7749 28.9411H47.5885C47.6894 26.653 47.2823 23.8949 45.9288 21.5711C44.2882 18.7545 41.062 16.2286 34.587 16.2286C30.6148 16.2286 27.8642 17.0088 25.9561 18.1332C24.0725 19.2433 22.8622 20.7745 22.0947 22.5621C20.7448 25.7059 20.7694 29.6322 21.2379 33.1773H28.5038Z" fill="#21201F"/>
<path fill-rule="evenodd" clip-rule="evenodd" d="M46.8746 29.2071L47.0622 31.4704C47.3105 34.4674 47.0865 39.0011 45.5917 42.8893C44.0768 46.8295 41.0022 50.5952 35.4695 50.5952C32.1768 50.5952 28.8469 49.2857 25.9513 46.5472L24.3013 44.9867L27.4223 41.6866L29.0723 43.2471C31.2026 45.2618 33.4407 46.053 35.4695 46.053C38.3769 46.053 40.1972 44.2633 41.3521 41.2593C42.527 38.2033 42.7475 34.4039 42.5355 31.8455L42.348 29.5822L46.8746 29.2071Z" fill="#21201F"/>
<path fill-rule="evenodd" clip-rule="evenodd" d="M44.3679 51.7857L46.9251 50.3829C52.6422 51.5151 56.352 55.4277 58.6651 59.526C60.9697 63.6093 62.0326 68.1071 62.4171 71.0125L62.715 73.264L58.2121 73.8598L57.9142 71.6084C57.5796 69.0801 56.6445 65.1871 54.7094 61.7585C53.0683 58.8507 50.8142 56.4459 47.7293 55.3113C42.0606 65.7083 26.9538 65.2138 21.049 55.4132C12.6251 58.9065 10.8094 67.2989 10.0174 71.7116L9.61622 73.947L5.14551 73.1446L5.54671 70.9092C6.38034 66.2646 8.73234 54.2782 21.5041 50.4362L24.2442 51.7128C28.0705 60.5983 40.9243 60.6184 44.3679 51.7857Z" fill="#21201F"/>
</g>
<defs>
<clipPath id="clip0">
<rect width="83" height="83" fill="white"/>
</clipPath>
</defs>
</svg>
