<svg width="60" height="60" viewBox="0 0 60 60" fill="none" xmlns="http://www.w3.org/2000/svg">
<path d="M0.694136 20.635L9.34894 11.9036L0.694137 3.17206L3.20349 0.693089L14.3121 11.9036L3.20349 23.114L0.694136 20.635ZM11.9686 40.9921C11.9615 39.5138 12.2533 38.0494 12.8266 36.6865C13.3998 35.3236 14.2427 34.0904 15.3047 33.0608C17.6755 30.751 21.009 29.5287 24.9415 29.5287H37.3357C43.8146 29.5287 46.7652 25.4132 46.7652 21.5886C46.7711 20.5829 46.5737 19.5865 46.1846 18.6589C45.7956 17.7314 45.2229 16.8919 44.5011 16.1909C42.8052 14.5385 40.3268 13.6661 37.3357 13.6661L18.789 13.6661V10.141L37.3357 10.141C41.2647 10.141 44.5937 11.3598 46.9654 13.6661C48.0256 14.6945 48.8669 15.9262 49.4389 17.2873C50.011 18.6483 50.302 20.1107 50.2945 21.5868C50.2945 27.2859 45.8396 33.0537 37.3357 33.0537H24.9415C18.4546 33.0537 15.5006 37.1692 15.5006 40.9921C15.5006 44.815 18.4573 48.9348 24.9415 48.9348H40.0409C40.4782 46.7951 41.6954 44.8937 43.4566 43.5994C45.2177 42.305 47.3973 41.7099 49.5728 41.9294C51.7483 42.1489 53.7647 43.1674 55.231 44.7874C56.6974 46.4074 57.5093 48.5135 57.5093 50.6973C57.5093 52.8812 56.6974 54.9873 55.231 56.6073C53.7647 58.2273 51.7483 59.2458 49.5728 59.4653C47.3973 59.6848 45.2177 59.0897 43.4566 57.7953C41.6954 56.501 40.4782 54.5996 40.0409 52.4599H24.9415C16.4244 52.4599 11.9686 46.6911 11.9686 40.9921ZM53.9826 50.6973C53.9826 49.6516 53.6722 48.6293 53.0904 47.7597C52.5087 46.8902 51.6819 46.2125 50.7146 45.8123C49.7472 45.4121 48.6828 45.3074 47.6558 45.5114C46.6289 45.7154 45.6856 46.219 44.9452 46.9585C44.2048 47.698 43.7006 48.6401 43.4964 49.6658C43.2921 50.6915 43.3969 51.7546 43.7976 52.7208C44.1983 53.687 44.8769 54.5128 45.7475 55.0938C46.618 55.6748 47.6416 55.9849 48.6886 55.9849C50.0922 55.9833 51.4378 55.4256 52.4303 54.4344C53.4227 53.4431 53.981 52.0992 53.9826 50.6973Z" fill="white"/>
<path fill-rule="evenodd" clip-rule="evenodd" d="M0 20.6386L8.65841 11.9035L7.64535e-07 3.16836L3.20719 0L15.0025 11.9035L3.20719 23.807L0 20.6386ZM9.34894 11.9036L0.694136 20.635L3.20349 23.114L14.3121 11.9036L3.20349 0.693089L0.694137 3.17206L9.34894 11.9036ZM11.9686 40.9921C11.9615 39.5138 12.2533 38.0494 12.8266 36.6865C13.3998 35.3236 14.2427 34.0904 15.3047 33.0608C17.6755 30.751 21.009 29.5287 24.9415 29.5287H37.3357C43.8146 29.5287 46.7652 25.4132 46.7652 21.5886C46.7711 20.5829 46.5737 19.5865 46.1846 18.6589C45.7956 17.7314 45.2229 16.8919 44.5011 16.1909C42.8052 14.5385 40.3268 13.6661 37.3357 13.6661L18.789 13.6661V10.141L37.3357 10.141C41.2647 10.141 44.5937 11.3598 46.9654 13.6661C48.0256 14.6945 48.8669 15.9262 49.4389 17.2873C50.011 18.6483 50.302 20.1107 50.2945 21.5868C50.2945 27.2859 45.8396 33.0537 37.3357 33.0537H24.9415C18.4546 33.0537 15.5006 37.1692 15.5006 40.9921C15.5006 44.815 18.4573 48.9348 24.9415 48.9348H40.0409C40.4782 46.7951 41.6954 44.8937 43.4566 43.5994C45.2177 42.305 47.3973 41.7099 49.5728 41.9294C51.7483 42.1489 53.7647 43.1674 55.231 44.7874C56.6974 46.4074 57.5093 48.5135 57.5093 50.6973C57.5093 52.8812 56.6974 54.9873 55.231 56.6073C53.7647 58.2273 51.7483 59.2458 49.5728 59.4653C47.3973 59.6848 45.2177 59.0897 43.4566 57.7953C41.6954 56.501 40.4782 54.5996 40.0409 52.4599H24.9415C16.4244 52.4599 11.9686 46.6911 11.9686 40.9921ZM39.6491 52.9499H24.9415C16.1585 52.9499 11.4785 46.9671 11.4779 40.9932C11.4779 40.9936 11.4779 40.994 11.4779 40.9943M39.6491 52.9499C40.1734 55.0483 41.415 56.9033 43.1657 58.1901C45.0248 59.5564 47.3256 60.1846 49.6221 59.9529C51.9186 59.7212 54.0471 58.6461 55.595 56.936C57.143 55.2259 58 53.0026 58 50.6973C58 48.3919 57.143 46.1687 55.595 44.4586C54.0471 42.7485 51.9186 41.6734 49.6221 41.4417C47.3256 41.21 45.0248 41.8382 43.1657 43.2045C41.415 44.4912 40.1734 46.3463 39.6491 48.4446H24.9415C21.8077 48.4446 19.5768 47.4517 18.1319 46.0459C16.6824 44.6356 15.9913 42.779 15.9913 40.992C15.9913 39.2049 16.6818 37.3495 18.1308 35.9404C19.5753 34.5357 21.8061 33.5438 24.9415 33.5438H37.3357C46.1057 33.5438 50.7845 27.5616 50.7852 21.588C50.7929 20.0464 50.4889 18.519 49.8914 17.0975C49.2938 15.6757 48.415 14.389 47.3075 13.3146C44.8274 10.9031 41.3669 9.65084 37.3357 9.65084L18.2983 9.65084V14.1561L37.3357 14.1561C40.2342 14.1561 42.5768 15.0006 44.1584 16.5417C44.8329 17.1967 45.3685 17.9816 45.732 18.8483C46.0956 19.7149 46.28 20.646 46.2744 21.5856V21.5885C46.2744 23.3767 45.5846 25.2326 44.1375 26.6418C42.6948 28.0467 40.4669 29.0385 37.3357 29.0385H24.9415C20.9068 29.0385 17.4418 30.2942 14.9626 32.7093C13.8533 33.7849 12.973 35.073 12.3742 36.4966C11.7755 37.9199 11.4706 39.4494 11.4779 40.9932M53.4919 50.6971C53.4919 49.7483 53.2102 48.8209 52.6824 48.032C52.1547 47.2431 51.4045 46.6282 50.5268 46.2651C49.6491 45.902 48.6833 45.8069 47.7516 45.9921C46.8198 46.1772 45.9639 46.6341 45.2922 47.305C44.6204 47.9759 44.163 48.8308 43.9776 49.7614C43.7923 50.692 43.8874 51.6565 44.251 52.5332C44.6145 53.4098 45.2302 54.159 46.0201 54.6862C46.8098 55.2132 47.7383 55.4946 48.6881 55.4947C49.9617 55.4932 51.1827 54.9872 52.0833 54.0877C52.9838 53.1884 53.4903 51.969 53.4919 50.6971ZM53.9826 50.6973C53.9826 49.6516 53.6722 48.6293 53.0904 47.7597C52.5087 46.8902 51.6819 46.2125 50.7146 45.8123C49.7472 45.4121 48.6828 45.3074 47.6558 45.5114C46.6289 45.7154 45.6856 46.219 44.9452 46.9585C44.2048 47.698 43.7006 48.6401 43.4964 49.6658C43.2921 50.6915 43.3969 51.7546 43.7976 52.7208C44.1983 53.687 44.8769 54.5128 45.7475 55.0938C46.618 55.6748 47.6416 55.9849 48.6886 55.9849C50.0922 55.9833 51.4378 55.4256 52.4303 54.4344C53.4227 53.4431 53.981 52.0992 53.9826 50.6973Z" fill="white"/>
</svg>
