<svg width="60" height="60" viewBox="0 0 60 60" fill="none" xmlns="http://www.w3.org/2000/svg">
<path d="M30 59.5082C13.729 59.5082 0.491803 46.271 0.491803 30C0.491803 13.729 13.729 0.491773 30 0.491773C46.271 0.491773 59.5082 13.7262 59.5082 30C59.5082 46.2738 46.271 59.5082 30 59.5082ZM30 4.1803C15.7632 4.1803 4.18033 15.7641 4.18033 30C4.18033 44.2359 15.7632 55.8197 30 55.8197C44.2368 55.8197 55.8197 44.2322 55.8197 30C55.8197 15.7678 44.2368 4.1803 30 4.1803ZM41.7378 44.341L28.1557 30.7608V11.5574H31.8443V29.2337L44.3456 41.7332L41.7378 44.341Z" fill="white"/>
<path fill-rule="evenodd" clip-rule="evenodd" d="M41.7378 45.0365L27.6639 30.9645V11.0656H32.3361V29.03L45.0411 41.7332L41.7378 45.0365ZM31.8443 29.2337V11.5574H28.1557V30.7608L41.7378 44.341L44.3456 41.7332L31.8443 29.2337ZM30 60C13.4574 60 0 46.5426 0 30C0 13.4574 13.4574 0 30 0C46.5426 0 60 13.4546 60 30C60 46.5454 46.5426 60 30 60ZM30 4.67207C16.0349 4.67207 4.67213 16.0357 4.67213 30C4.67213 43.9643 16.0349 55.3279 30 55.3279C43.9651 55.3279 55.3279 43.9607 55.3279 30C55.3279 16.0393 43.9651 4.67207 30 4.67207ZM0.491803 30C0.491803 46.271 13.729 59.5082 30 59.5082C46.271 59.5082 59.5082 46.2738 59.5082 30C59.5082 13.7262 46.271 0.491773 30 0.491773C13.729 0.491773 0.491803 13.729 0.491803 30ZM4.18033 30C4.18033 15.7641 15.7632 4.1803 30 4.1803C44.2368 4.1803 55.8197 15.7678 55.8197 30C55.8197 44.2322 44.2368 55.8197 30 55.8197C15.7632 55.8197 4.18033 44.2359 4.18033 30Z" fill="white"/>
</svg>
